<svg xmlns="http://www.w3.org/2000/svg" xmlns:xlink="http://www.w3.org/1999/xlink" width="492" height="252" viewBox="0 0 98.39999999999999 50.400000000000006"><defs><path id="a" fill="#fff" d="M0 0l8 4-8 4z"/></defs><g id="b"><use x="-8" y="-4" transform="scale(-1 1)" fill-opacity=".22" xlink:href="#a"/><use y=".2" fill-opacity=".33" xlink:href="#a"/><use x="-8" y="4.4" transform="scale(-1 1)" fill-opacity=".33" xlink:href="#a"/><use y="8.6" fill-opacity=".33" xlink:href="#a"/><use x="-8" y="12.8" transform="scale(-1 1)" fill-opacity=".44" xlink:href="#a"/><use y="17" fill-opacity=".22" xlink:href="#a"/><use x="-8" y="21.2" transform="scale(-1 1)" fill-opacity=".22" xlink:href="#a"/><use x="8.2" y="-4" fill-opacity=".33" xlink:href="#a"/><use x="-16.2" y=".2" transform="scale(-1 1)" fill-opacity=".44" xlink:href="#a"/><use x="8.2" y="4.4" fill-opacity=".33" xlink:href="#a"/><use x="-16.2" y="8.6" transform="scale(-1 1)" fill-opacity=".22" xlink:href="#a"/><use x="8.2" y="12.8" fill-opacity=".11" xlink:href="#a"/><use x="-16.2" y="17" transform="scale(-1 1)" fill-opacity=".22" xlink:href="#a"/><use x="8.2" y="21.2" fill-opacity=".33" xlink:href="#a"/><use x="-24.4" y="-4" transform="scale(-1 1)" fill-opacity=".22" xlink:href="#a"/><use x="16.4" y=".2" fill-opacity=".22" xlink:href="#a"/><use x="-24.4" y="4.4" transform="scale(-1 1)" fill-opacity=".33" xlink:href="#a"/><use x="16.4" y="8.6" fill-opacity=".22" xlink:href="#a"/><use x="-24.4" y="12.8" transform="scale(-1 1)" fill-opacity=".11" xlink:href="#a"/><use x="16.4" y="17" fill-opacity=".22" xlink:href="#a"/><use x="-24.4" y="21.2" transform="scale(-1 1)" fill-opacity=".22" xlink:href="#a"/><use x="24.6" y="-4" fill-opacity=".22" xlink:href="#a"/><use x="-32.6" y=".2" transform="scale(-1 1)" fill-opacity=".22" xlink:href="#a"/><use x="24.6" y="4.4" fill-opacity=".11" xlink:href="#a"/><use x="-32.6" y="8.6" transform="scale(-1 1)" fill-opacity=".33" xlink:href="#a"/><use x="24.6" y="12.8" fill-opacity=".33" xlink:href="#a"/><use x="-32.6" y="17" transform="scale(-1 1)" fill-opacity=".11" xlink:href="#a"/><use x="24.6" y="21.2" fill-opacity=".22" xlink:href="#a"/><use x="-40.8" y="-4" transform="scale(-1 1)" fill-opacity=".33" xlink:href="#a"/><use x="32.8" y=".2" fill-opacity=".44" xlink:href="#a"/><use x="-40.8" y="4.4" transform="scale(-1 1)" fill-opacity=".11" xlink:href="#a"/><use x="32.8" y="8.6" fill-opacity=".22" xlink:href="#a"/><use x="-40.8" y="12.8" transform="scale(-1 1)" fill-opacity=".33" xlink:href="#a"/><use x="32.8" y="17" fill-opacity=".11" xlink:href="#a"/><use x="-40.8" y="21.2" transform="scale(-1 1)" fill-opacity=".33" xlink:href="#a"/><use x="41" y="-4" fill-opacity=".22" xlink:href="#a"/><use x="-49" y=".2" transform="scale(-1 1)" fill-opacity=".22" xlink:href="#a"/><use x="41" y="4.4" fill-opacity=".44" xlink:href="#a"/><use x="-49" y="8.6" transform="scale(-1 1)" fill-opacity=".22" xlink:href="#a"/><use x="41" y="12.8" fill-opacity=".33" xlink:href="#a"/><use x="-49" y="17" transform="scale(-1 1)" fill-opacity=".22" xlink:href="#a"/><use x="41" y="21.2" fill-opacity=".22" xlink:href="#a"/></g><use x="-49" y="25.2" transform="scale(-1 1)" xlink:href="#b"/><use x="-98.2" y="-16.8" transform="scale(-1)" xlink:href="#b"/><use x="49.2" y="-33.6" transform="scale(1 -1)" xlink:href="#b"/><use x="49.2" y="-58.8" transform="scale(1 -1)" xlink:href="#b"/></svg>